#!OML:ASF Y:\EmotionMaleHayes\Project 1\Capture day 1\Session 1\Male1.ASF
:FULLY-SPECIFIED
:DEGREES
444
root -2.57614 16.7842 1.13186 -49.1414 81.0783 -46.3551
lowerback 10.8978 3.13428 7.26826
upperback 2.75878 5.13527 1.66179
thorax -2.72386 2.57413 -2.98696
lowerneck -21.5621 1.30679 3.5834
upperneck 20.1963 1.2003 -1.99792
head 10.0267 0.621015 -1.11514
rclavicle -3.71852e-014 1.72943e-014
rhumerus -15.7236 14.9734 -84.3462
rradius 45.7899
rwrist -8.71808
rhand -12.0865 -31.8104
rfingers 7.12502
rthumb 13.9736 -61.3208
lclavicle -3.71852e-014 1.72943e-014
lhumerus -42.8538 2.24526 82.5037
lradius 18.6054
lwrist -28.7918
lhand -5.96951 -24.8386
lfingers 7.12502
lthumb 19.8617 4.16649
rfemur 16.4032 0.779771 26.9699
rtibia 6.32766
rfoot -21.3312 6.51041
rtoes 9.96912
lfemur -24.2444 10.3 -8.81074
ltibia 27.886
lfoot -7.9057 6.36756
ltoes -4.15601
445
root -2.37141 16.7423 1.11804 -49.6724 80.8212 -47.0351
lowerback 10.6654 3.23752 7.58507
upperback 2.81657 5.28293 1.6617
thorax -2.49101 2.6578 -3.15633
lowerneck -21.7177 1.16366 3.48653
upperneck 19.9139 1.01033 -1.97303
head 9.94715 0.523434 -1.11727
rclavicle -3.22404e-015 5.81445e-015
rhumerus -14.9136 15.0062 -83.9783
rradius 46.2569
rwrist -8.80138
rhand -11.8699 -32.427
rfingers 7.12502
rthumb 14.1824 -61.9229
lclavicle -3.22404e-015 5.81445e-015
lhumerus -43.4472 2.41286 82.2079
lradius 18.8483
lwrist -28.3311
lhand -5.9079 -24.8737
lfingers 7.12502
lthumb 19.9209 4.12532
rfemur 17.1214 0.645061 27.0652
rtibia 6.18405
rfoot -21.6387 6.71371
rtoes 9.63464
lfemur -24.0449 9.56264 -8.19826
ltibia 24.0549
lfoot -7.79141 7.13327
ltoes -3.08166
446
root -2.16952 16.6934 1.10483 -50.2873 80.3351 -47.9653
lowerback 10.1242 3.38686 8.01269
upperback 2.93025 5.47225 1.75737
thorax -2.02219 2.77484 -3.26194
lowerneck -21.9044 1.08301 3.53323
upperneck 19.6394 0.920687 -2.19957
head 9.88125 0.452679 -1.21705
rclavicle -1.83068e-014 4.02539e-015
rhumerus -14.0639 15.0724 -83.5023
rradius 46.831
rwrist -9.02401
rhand -11.6068 -33.1397
rfingers 7.12502
rthumb 14.4359 -62.6176
lclavicle -1.83068e-014 4.02539e-015
lhumerus -43.8558 2.80485 81.8462
lradius 18.8665
lwrist -28.172
lhand -6.28837 -25.0664
lfingers 7.12502
lthumb 19.5551 3.9702
rfemur 17.5206 0.492678 27.3716
rtibia 6.29408
rfoot -22.1594 7.03413
rtoes 9.03601
lfemur -23.9882 8.74191 -7.25052
ltibia 20.3191
lfoot -7.26321 8.05834
ltoes -3.81101
447
root -1.9644 16.6439 1.09532 -50.7812 79.9313 -48.665
lowerback 9.68181 3.46757 8.34111
upperback 3.06381 5.56398 1.83005
thorax -1.60338 2.84362 -3.33162
lowerneck -22.0253 1.09093 3.39826
upperneck 19.4033 0.954588 -2.16303
head 9.81905 0.458264 -1.17588
rclavicle 5.10814e-014 1.10822e-014
rhumerus -13.2374 15.2169 -83.1008
rradius 47.4825
rwrist -9.34326
rhand -11.5633 -33.355
rfingers 7.12502
rthumb 14.4778 -62.8299
lclavicle 5.10814e-014 1.10822e-014
lhumerus -44.1875 3.63 81.193
lradius 18.7026
lwrist -28.279
lhand -6.40712 -25.2285
lfingers 7.12502
lthumb 19.4409 3.81963
rfemur 18.0399 0.321067 27.5761
rtibia 6.46172
rfoot -22.8394 7.31232
rtoes 8.2034
lfemur -23.8964 7.67762 -6.27716
ltibia 17.0164
lfoot -7.11718 8.99646
ltoes -5.05228
448
root -1.75579 16.5992 1.08366 -50.93 79.6011 -48.9424
lowerback 9.47086 3.52901 8.62048
upperback 3.08182 5.64742 1.8128
thorax -1.42856 2.89412 -3.49005
lowerneck -21.9446 1.06598 3.23804
upperneck 19.1131 0.913921 -1.93651
head 9.69853 0.451885 -1.07441
rclavicle 1.40671e-014 2.70099e-014
rhumerus -12.5932 15.3912 -82.8751
rradius 48.0347
rwrist -9.74965
rhand -11.9585 -33.2513
rfingers 7.12502
rthumb 14.097 -62.7532
lclavicle 1.40671e-014 2.70099e-014
lhumerus -44.6289 4.49543 80.3817
lradius 18.6367
lwrist -28.2464
lhand -5.74519 -25.0437
lfingers 7.12502
lthumb 20.0773 3.93895
rfemur 18.6558 0.258332 27.6712
rtibia 6.59153
rfoot -23.1995 7.73979
rtoes 8.97484
lfemur -23.7135 6.52293 -5.369
ltibia 14.0604
lfoot -7.69597 9.92763
ltoes -4.41732
449
root -1.54961 16.5522 1.0715 -51.3646 79.0329 -49.6087
lowerback 9.21882 3.61153 9.07827
upperback 3.05285 5.77417 1.8684
thorax -1.2633 2.96527 -3.67151
lowerneck -21.855 1.04625 3.2187
upperneck 18.8033 0.856922 -1.80231
head 9.57086 0.437172 -1.03117
rclavicle -3.55693e-014 -3.42158e-014
rhumerus -12.1493 15.7414 -82.6268
rradius 48.5193
rwrist -10.1373
rhand -12.5234 -32.7803
rfingers 7.12502
rthumb 13.5526 -62.3193
lclavicle -3.55693e-014 -3.42158e-014
lhumerus -45.166 4.98666 79.8679
lradius 18.8116
lwrist -27.8498
lhand -5.11816 -24.6322
lfingers 7.12502
lthumb 20.6799 4.28607
rfemur 19.0373 0.718746 28.3583
rtibia 6.86549
rfoot -23.484 7.66507
rtoes 9.77709
lfemur -23.7002 5.591 -4.13922
ltibia 11.5045
lfoot -7.95604 10.6858
ltoes -4.74918
450
root -1.34537 16.5063 1.05989 -51.9001 78.5328 -50.2457
lowerback 9.19485 3.70687 9.49484
upperback 2.98752 5.94054 1.90546
thorax -1.25733 3.04786 -3.87261
lowerneck -21.8616 1.00697 3.38719
upperneck 18.7269 0.753556 -1.83714
head 9.54317 0.396575 -1.08554
rclavicle 9.13167e-016 -1.49089e-015
rhumerus -11.8813 15.734 -82.4416
rradius 48.9055
rwrist -10.2189
rhand -12.6364 -32.3445
rfingers 7.12502
rthumb 13.4437 -61.8907
lclavicle 9.13167e-016 -1.49089e-015
lhumerus -45.8837 4.75191 79.7595
lradius 19.1832
lwrist -27.0081
lhand -5.07388 -24.3121
lfingers 7.12502
lthumb 20.7224 4.60155
rfemur 19.5154 1.22404 29.0704
rtibia 7.28319
rfoot -24.0834 7.08401
rtoes 7.62055
lfemur -23.7227 5.03295 -3.07217
ltibia 9.49273
lfoot -8.38749 10.9949
ltoes -4.58187
451
root -1.14046 16.4631 1.0473 -51.9517 78.1902 -50.3477
lowerback 9.26547 3.85204 9.7752
upperback 2.89395 6.16938 1.85747
thorax -1.32759 3.15555 -4.10146
lowerneck -21.8899 0.915647 3.45963
upperneck 18.719 0.591738 -1.79184
head 9.54092 0.332008 -1.10482
rclavicle -4.81742e-014 -3.52346e-014
rhumerus -11.6032 15.3767 -82.3406
rradius 49.1758
rwrist -10.1596
rhand -12.7609 -32.1592
rfingers 7.12502
rthumb 13.3236 -61.7133
lclavicle -4.81742e-014 -3.52346e-014
lhumerus -46.3626 5.215 79.0021
lradius 19.0157
lwrist -27.3965
lhand -5.24524 -24.475
lfingers 7.12502
lthumb 20.5578 4.45651
rfemur 20.0968 1.51699 29.4191
rtibia 7.61878
rfoot -24.5901 6.66906
rtoes 4.796
lfemur -23.8547 4.71537 -2.35784
ltibia 8.12806
lfoot -8.97695 11.0023
ltoes -5.2378
452
root -0.933519 16.4186 1.03393 -51.7091 77.9856 -50.2342
lowerback 9.07397 3.92801 9.82468
upperback 2.91576 6.24876 1.84309
thorax -1.18055 3.20302 -4.12939
lowerneck -21.9391 0.917729 3.3354
upperneck 18.5635 0.592783 -1.63487
head 9.49414 0.339642 -1.02879
rclavicle -6.67171e-015 3.18055e-015
rhumerus -11.0682 15.4942 -82.1294
rradius 49.3167
rwrist -10.1763
rhand -13.1941 -31.8868
rfingers 7.12502
rthumb 12.9061 -61.4677
lclavicle -6.67171e-015 3.18055e-015
lhumerus -46.525 6.903 77.5656
lradius 18.3972
lwrist -28.9865
lhand -5.21152 -24.7307
lfingers 7.12502
lthumb 20.5902 4.19732
rfemur 20.6228 2.01792 29.7362
rtibia 7.8736
rfoot -24.7564 6.38019
rtoes 4.94566
lfemur -24.1701 4.49559 -1.89689
ltibia 7.31607
lfoot -9.31439 10.759
ltoes -4.57838
453
root -0.726544 16.3752 1.02198 -51.4912 78 -50.0128
lowerback 9.03727 3.88752 9.53706
upperback 2.96702 6.16361 1.87497
thorax -1.15375 3.16258 -3.92891
lowerneck -21.921 0.985321 3.25633
upperneck 18.3774 0.693888 -1.57153
head 9.4278 0.386062 -0.978519
rclavicle 1.99903e-014 -2.13694e-014
rhumerus -10.643 15.8923 -81.8803
rradius 49.5458
rwrist -10.1921
rhand -13.5979 -31.4989
rfingers 7.12502
rthumb 12.5168 -61.104
lclavicle 1.99903e-014 -2.13694e-014
lhumerus -46.8842 8.16825 76.638
lradius 18.0793
lwrist -29.7837
lhand -5.19729 -24.6692
lfingers 7.12502
lthumb 20.6038 4.25733
rfemur 21.2732 2.5615 29.9362
rtibia 8.22827
rfoot -24.9348 5.92594
rtoes 5.36946
lfemur -24.3717 4.59737 -1.83706
ltibia 6.8368
lfoot -9.56644 9.93239
ltoes -4.68493
454
root -0.517554 16.3327 1.01199 -51.5535 78.0069 -49.9699
lowerback 9.24644 3.86833 9.32596
upperback 2.97012 6.14358 1.85962
thorax -1.29008 3.14561 -3.84796
lowerneck -22.051 0.995844 3.29018
upperneck 18.366 0.683422 -1.53819
head 9.44657 0.386546 -0.973907
rclavicle 1.70085e-014 -2.68359e-014
rhumerus -10.4845 15.9261 -81.761
rradius 49.9062
rwrist -10.0663
rhand -13.7895 -31.2241
rfingers 7.12502
rthumb 12.3321 -60.8404
lclavicle 1.70085e-014 -2.68359e-014
lhumerus -47.2073 8.88211 75.9541
lradius 17.8094
lwrist -30.1173
lhand -5.02183 -24.5568
lfingers 7.12502
lthumb 20.7724 4.35136
rfemur 21.9663 2.88012 30.0548
rtibia 8.75009
rfoot -25.3115 5.40328
rtoes 3.62615
lfemur -24.5107 5.13177 -1.91493
ltibia 6.86013
lfoot -9.22977 8.79941
ltoes -4.74796
